<svg width="320" height="320" viewBox="0 0 320 320" fill="none" xmlns="http://www.w3.org/2000/svg">
  <rect width="320" height="320" rx="64" fill="#171311"/>
  <circle cx="98" cy="82" r="58" fill="#B58C69" fill-opacity="0.12"/>
  <rect x="44" y="62" width="112" height="136" rx="28" fill="#221C19"/>
  <path d="M72 166C84 149 88 134 89 121C90 104 81 93 79 77C76 54 92 44 112 49C133 55 150 70 150 91C150 101 145 111 139 120C132 131 130 143 136 160C127 153 118 150 108 150C96 150 84 154 72 166Z" fill="#F4EFE8"/>
  <path d="M86 82C97 86 109 85 120 93C119 76 110 63 95 57C109 56 122 63 131 76C138 86 142 97 141 107C133 95 124 90 115 87C105 84 95 83 86 82Z" fill="#C68358"/>
  <path d="M86 95C95 108 106 118 119 129C122 120 122 109 117 98C111 85 101 75 97 62C92 69 92 78 92 86C91 91 90 93 86 95Z" fill="#15110F"/>
  <path d="M94 98C101 106 106 110 112 118C109 108 112 101 120 95C110 93 102 94 94 98Z" fill="#F4EFE8"/>
  <path d="M119 130C108 140 98 147 82 151C95 147 108 148 121 153C133 157 143 160 154 162C143 152 132 142 119 130Z" fill="#C68358"/>
</svg>
