<svg width="96" height="96" viewBox="0 0 96 96" fill="none" xmlns="http://www.w3.org/2000/svg">
  <rect width="96" height="96" rx="24" fill="#161412"/>
  <path d="M17 68C28 53 31 43 31 33C31 23 27 19 26 13C25 3 35 0 46 2C57 3 69 10 69 22C69 29 64 33 62 39C60 47 64 55 70 62C62 58 55 55 48 55C38 55 27 59 17 68Z" fill="#F6EFE5"/>
  <path d="M31 35C34 41 40 46 46 49C49 44 49 39 47 35C44 29 40 25 36 18C39 18 42 20 46 22C54 26 59 29 63 35C59 33 55 34 53 35C50 37 48 40 47 44C43 41 36 39 31 35Z" fill="#161412"/>
  <path d="M36 18C44 20 51 18 58 21C54 16 50 12 43 10C49 10 55 12 60 16C64 19 67 24 68 29C62 24 57 22 50 20C45 19 40 19 36 18Z" fill="#B8744F"/>
</svg>
