<svg width="960" height="520" viewBox="0 0 960 520" fill="none" xmlns="http://www.w3.org/2000/svg">
  <rect width="960" height="520" rx="32" fill="#141110"/>
  <circle cx="178" cy="128" r="72" fill="#B58C69" fill-opacity="0.10"/>
  <circle cx="658" cy="226" r="122" fill="#8D5C39" fill-opacity="0.28"/>
  <g transform="translate(72 140)">
    <rect x="0" y="0" width="154" height="186" rx="38" fill="#211B18"/>
    <path d="M34 142C49 122 55 104 56 89C57 66 46 52 44 31C40 1 62 -11 88 -4C116 4 140 23 140 52C140 67 133 80 124 92C115 105 112 121 120 142C108 133 96 129 84 129C67 129 50 133 34 142Z" fill="#F4EFE8"/>
    <path d="M53 32C66 36 81 35 95 45C94 22 81 5 61 -3C80 -4 98 6 111 21C122 33 127 47 127 61C116 45 104 38 92 34C80 30 66 30 53 32Z" fill="#C68358"/>
    <path d="M53 50C64 67 78 81 95 95C99 83 100 69 93 55C84 39 72 27 66 10C59 20 59 31 60 42C60 48 58 50 53 50Z" fill="#15110F"/>
    <path d="M64 53C73 63 79 69 87 79C83 66 88 58 98 50C85 47 74 48 64 53Z" fill="#F4EFE8"/>
    <path d="M95 97C81 110 69 120 49 125C65 120 81 121 98 127C114 132 128 136 143 139C128 126 114 112 95 97Z" fill="#C68358"/>
  </g>
  <text x="284" y="196" fill="#E7C8A8" font-family="Manrope, Arial, sans-serif" font-size="38" font-weight="500" letter-spacing="10">BARBERIA</text>
  <text x="284" y="300" fill="#F5EFE7" font-family="'Cormorant Garamond', serif" font-size="102" font-style="italic">El Ser</text>
  <path d="M286 326H670" stroke="#C68358" stroke-width="4" stroke-linecap="round"/>
  <text x="286" y="382" fill="#D2BBA0" font-family="Manrope, Arial, sans-serif" font-size="24" letter-spacing="5.5">DULCE NOMBRE DE CARTAGO</text>
</svg>
