<svg width="320" height="320" viewBox="0 0 320 320" fill="none" xmlns="http://www.w3.org/2000/svg">
  <rect width="320" height="320" rx="64" fill="#161412"/>
  <path d="M86 236C103 212 112 189 113 166C114 135 99 118 97 91C94 57 126 39 164 42C198 45 236 65 234 107C233 126 219 136 214 155C208 179 219 200 236 222C208 211 188 201 164 201C137 201 112 213 86 236Z" fill="#F6EFE5"/>
  <path d="M116 149C126 166 141 180 160 191C168 176 169 162 163 149C154 130 140 120 130 100C126 92 123 81 127 71C138 76 147 82 158 88C180 99 196 105 210 122C216 129 220 138 220 148C210 142 202 143 194 147C187 150 180 160 177 170C171 164 166 158 163 151C158 160 153 168 146 174C133 168 122 160 116 149Z" fill="#161412"/>
  <path d="M130 100C147 104 170 98 191 104C182 89 168 78 149 69C165 68 181 74 196 84C210 93 219 105 221 122C207 109 193 105 179 102C158 98 144 99 130 100Z" fill="#B8744F"/>
  <path d="M160 129C170 128 177 132 182 141C172 137 165 139 156 147C158 140 159 134 160 129Z" fill="#F6EFE5"/>
  <path d="M148 155C156 157 164 162 170 171C161 170 154 173 148 179C145 170 145 162 148 155Z" fill="#F6EFE5"/>
  <path d="M106 229C129 210 144 206 165 206C187 206 204 214 225 228C205 234 185 238 165 238C145 238 125 235 106 229Z" fill="#B8744F"/>
</svg>
