<svg width="220" height="140" viewBox="0 0 220 140" fill="none" xmlns="http://www.w3.org/2000/svg">
  <path d="M48 118C62 99 68 83 69 68C70 50 61 39 59 23C56 -1 74 -11 97 -4C122 4 143 22 143 46C143 59 136 71 128 82C120 94 117 108 125 124C114 115 102 111 90 111C75 111 61 113 48 118Z" fill="#F4EFE8"/>
  <path d="M66 24C78 28 92 27 105 36C103 17 92 3 73 -3C90 -4 107 5 119 18C128 29 134 42 133 55C123 40 112 33 101 29C90 25 78 24 66 24Z" fill="#C68358"/>
  <path d="M66 39C77 54 90 67 106 80C110 69 111 57 105 43C97 29 86 18 80 4C74 14 74 24 74 34C73 38 71 40 66 39Z" fill="#15110F"/>
  <path d="M75 43C83 51 89 57 96 67C93 56 97 49 106 42C94 39 84 39 75 43Z" fill="#F4EFE8"/>
  <path d="M106 81C93 93 81 102 63 107C78 102 92 103 107 109C122 113 135 116 149 119C135 107 121 95 106 81Z" fill="#C68358"/>
</svg>
