<svg width="1200" height="630" viewBox="0 0 1200 630" fill="none" xmlns="http://www.w3.org/2000/svg">
  <rect width="1200" height="630" fill="#141110"/>
  <circle cx="232" cy="154" r="88" fill="#B58C69" fill-opacity="0.10"/>
  <circle cx="820" cy="274" r="150" fill="#8D5C39" fill-opacity="0.26"/>
  <g transform="translate(108 174)">
    <rect x="0" y="0" width="172" height="204" rx="40" fill="#211B18"/>
    <path d="M38 155C54 132 60 112 61 95C62 71 50 56 48 34C44 1 68 -12 96 -4C127 4 153 24 153 56C153 72 145 86 135 99C125 114 121 131 130 154C117 145 104 141 91 141C73 141 55 146 38 155Z" fill="#F4EFE8"/>
    <path d="M58 35C72 39 88 38 103 49C101 24 87 7 65 -2C86 -3 106 8 120 24C131 37 137 52 137 67C125 49 111 42 99 38C86 34 72 34 58 35Z" fill="#C68358"/>
    <path d="M58 54C71 72 86 87 104 102C109 89 109 74 102 58C92 42 79 29 72 11C65 22 65 34 66 45C66 52 64 54 58 54Z" fill="#15110F"/>
    <path d="M70 58C79 68 86 75 94 85C90 71 95 62 106 54C92 51 81 52 70 58Z" fill="#F4EFE8"/>
    <path d="M104 104C89 118 76 129 54 135C71 130 89 131 106 138C124 143 139 147 156 150C139 136 123 121 104 104Z" fill="#C68358"/>
  </g>
  <text x="372" y="268" fill="#E7C8A8" font-family="Manrope, Arial, sans-serif" font-size="48" font-weight="500" letter-spacing="12">BARBERIA</text>
  <text x="372" y="392" fill="#F5EFE7" font-family="'Cormorant Garamond', serif" font-size="126" font-style="italic">El Ser</text>
  <path d="M374 424H852" stroke="#C68358" stroke-width="5" stroke-linecap="round"/>
  <text x="374" y="494" fill="#D2BBA0" font-family="Manrope, Arial, sans-serif" font-size="30" letter-spacing="6">DULCE NOMBRE DE CARTAGO</text>
</svg>
